<svg version="1.2" xmlns="http://www.w3.org/2000/svg" viewBox="0 0 24 24" width="24" height="24">
	<title>Circle-svg</title>
	<defs>
		<linearGradient id="g1" x1="12" y1="0" x2="12" y2="24" gradientUnits="userSpaceOnUse">
			<stop offset="0" stop-color="#d1a8ec"/>
			<stop offset="1" stop-color="#2d2b52"/>
		</linearGradient>
		<linearGradient id="g2" x1="12" y1="5" x2="12" y2="19" gradientUnits="userSpaceOnUse">
			<stop offset="0" stop-color="#d1a8ec"/>
			<stop offset="1" stop-color="#2d2b52"/>
		</linearGradient>
	</defs>
	<style>
		.s0 { fill: url(#g1) } 
		.s1 { fill: url(#g2) } 
	</style>
	<path id="Circle" fill-rule="evenodd" class="s0" d="m16.6 0.9c1.4 0.6 2.8 1.5 3.9 2.6 1.1 1.1 2 2.5 2.6 3.9 0.6 1.5 0.9 3 0.9 4.6 0 4.9-2.9 9.2-7.4 11.1-4.5 1.8-9.7 0.8-13.1-2.6-3.4-3.4-4.4-8.6-2.6-13.1 1.9-4.5 6.2-7.4 11.1-7.4 1.6 0 3.1 0.3 4.6 0.9zm-6.5 1.7q-0.9 0.2-1.8 0.5-0.8 0.4-1.6 0.9-0.8 0.6-1.5 1.2c-3.2 3.3-3.7 8.3-1.2 12.1 2.6 3.8 7.4 5.3 11.6 3.5 4.3-1.7 6.7-6.2 5.8-10.7-0.9-4.4-4.8-7.7-9.4-7.7q-0.9 0-1.9 0.2z"/>
	<path id="Add" class="s1" d="m19 13.4h-5.6v5.6h-2.8v-5.6h-5.6v-2.8h5.6v-5.6h2.8v5.6h5.6z"/>
</svg>